<svg width="128" height="128" viewBox="0 0 128 128" fill="none" xmlns="http://www.w3.org/2000/svg">
  <defs>
    <linearGradient id="circleGrad" x1="0" y1="0" x2="1" y2="1">
      <stop offset="0%" stop-color="#dff6ee"/>
      <stop offset="100%" stop-color="#f2f8ff"/>
    </linearGradient>
    <linearGradient id="shelfGrad" x1="0" y1="0" x2="1" y2="0">
      <stop offset="0%" stop-color="#22c55e"/>
      <stop offset="100%" stop-color="#0f9d58"/>
    </linearGradient>
    <linearGradient id="coinGrad" x1="0" y1="0" x2="1" y2="1">
      <stop offset="0%" stop-color="#fbbf24"/>
      <stop offset="100%" stop-color="#f97316"/>
    </linearGradient>
  </defs>
  <circle cx="64" cy="64" r="58" fill="url(#circleGrad)" stroke="#0f766e" stroke-opacity="0.22" stroke-width="2"/>
  <rect x="24" y="44" width="80" height="8" rx="4" fill="url(#shelfGrad)"/>
  <rect x="24" y="70" width="72" height="8" rx="4" fill="url(#shelfGrad)"/>
  <rect x="28" y="28" width="12" height="24" rx="3" fill="#4ade80"/>
  <rect x="46" y="30" width="28" height="20" rx="10" fill="#f59e0b"/>
  <circle cx="86" cy="36" r="10" fill="#10b981"/>
  <circle cx="60" cy="90" r="8" fill="url(#coinGrad)"/>
  <circle cx="72" cy="94" r="10" fill="url(#coinGrad)"/>
  <circle cx="84" cy="84" r="7" fill="url(#coinGrad)"/>
  <path d="M50 50C54 46 60 44 64 50" stroke="#0f766e" stroke-width="4" stroke-linecap="round"/>
  <path d="M56 58C62 56 68 56 74 58" stroke="#0f766e" stroke-width="3" stroke-linecap="round"/>
  <path d="M62 44C70 38 84 38 92 44" stroke="#059669" stroke-width="4" stroke-linecap="round"/>
  <path d="M52 88L66 102L98 70" stroke="#059669" stroke-width="8" stroke-linecap="round" stroke-linejoin="round"/>
</svg>
